<svg width="833" height="833" viewBox="0 0 833 833" fill="none" xmlns="http://www.w3.org/2000/svg">
<path fill-rule="evenodd" clip-rule="evenodd" d="M832.62 259.406C832.62 249.529 832.624 239.651 832.563 229.773C832.514 221.452 832.418 213.133 832.191 204.817C831.703 186.689 830.633 168.407 827.409 150.481C824.14 132.298 818.801 115.374 810.387 98.852C802.115 82.6129 791.311 67.7531 778.419 54.8703C765.53 41.9875 750.666 31.1897 734.421 22.9232C717.882 14.5073 700.94 9.17003 682.736 5.90162C664.809 2.68268 646.522 1.61542 628.394 1.12571C620.071 0.90055 611.748 0.805637 603.423 0.754142C593.54 0.69356 583.657 0.698609 573.775 0.698609L459.024 0.287659H373.199L260.479 0.698609C250.577 0.698609 240.675 0.69356 230.773 0.754142C222.431 0.805637 214.093 0.90055 205.754 1.12571C187.584 1.61542 169.255 2.68369 151.285 5.90667C133.057 9.17407 116.09 14.5094 99.529 22.9192C83.2495 31.1867 68.3534 41.9854 55.4373 54.8703C42.5232 67.7521 31.6982 82.6089 23.4116 98.845C14.9746 115.375 9.62515 132.309 6.34766 150.502C3.12066 168.421 2.05139 186.697 1.55966 204.817C1.33551 213.134 1.23858 221.453 1.18809 229.773C1.12751 239.652 0.619629 251.923 0.619629 261.801L0.622658 372.96L0.619629 459.703L1.13256 573.224C1.13256 583.115 1.12852 593.006 1.18809 602.897C1.23858 611.229 1.33551 619.559 1.56067 627.888C2.05139 646.038 3.12268 664.347 6.35271 682.297C9.62919 700.505 14.9776 717.453 23.4076 733.996C31.6952 750.258 42.5222 765.137 55.4373 778.038C68.3524 790.939 83.2445 801.751 99.5209 810.03C116.092 818.457 133.067 823.801 151.306 827.074C169.268 830.298 187.591 831.367 205.754 831.857C214.093 832.082 222.432 832.178 230.774 832.228C240.676 832.289 250.577 832.285 260.479 832.285L374.218 832.288H460.256L573.775 832.284C583.657 832.284 593.54 832.289 603.423 832.228C611.748 832.178 620.071 832.082 628.394 831.857C646.529 831.366 664.822 830.296 682.758 827.07C700.95 823.797 717.884 818.455 734.414 810.033C750.662 801.755 765.529 790.941 778.419 778.038C791.309 765.139 802.112 750.262 810.384 734.003C818.803 717.452 824.142 700.496 827.414 682.276C830.634 664.333 831.703 646.031 832.192 627.888C832.418 619.558 832.514 611.228 832.563 602.897C832.625 593.006 832.62 583.115 832.62 573.224C832.62 573.224 832.613 461.708 832.613 459.703V372.869C832.613 371.389 832.62 259.406 832.62 259.406Z" fill="#FF0004" fill-opacity="0.7"/>
</svg>
